<svg width="199" height="40" viewBox="0 0 199 40" fill="none" xmlns="http://www.w3.org/2000/svg">
<path fill-rule="evenodd" clip-rule="evenodd" d="M20 40C31.0457 40 40 31.0457 40 20C40 8.95431 31.0457 0 20 0C8.95429 0 0 8.95431 0 20C0 31.0457 8.95429 40 20 40ZM26.2393 9.31684C26.543 8.23805 25.4961 7.60013 24.54 8.2813L11.1931 17.7896C10.1562 18.5283 10.3193 20 11.4381 20H14.9527V19.9728H21.8025L16.2212 21.9421L13.7607 30.6832C13.457 31.762 14.5038 32.3999 15.46 31.7187L28.8069 22.2105C29.8438 21.4718 29.6806 20 28.5619 20H23.2321L26.2393 9.31684Z" fill="#4640DE"/>
<path d="M61.3359 22.26V27H57.3959V12.84H63.2759C64.9826 12.84 66.2826 13.2733 67.1759 14.14C68.0826 14.9933 68.5359 16.14 68.5359 17.58C68.5359 18.4733 68.3359 19.2733 67.9359 19.98C67.5359 20.6867 66.9359 21.2467 66.1359 21.66C65.3493 22.06 64.3959 22.26 63.2759 22.26H61.3359ZM62.8359 19.16C63.9826 19.16 64.5559 18.6333 64.5559 17.58C64.5559 16.54 63.9826 16.02 62.8359 16.02H61.3359V19.16H62.8359ZM75.3717 15.64C76.4917 15.64 77.4917 15.8733 78.3717 16.34C79.265 16.7933 79.965 17.46 80.4717 18.34C80.9784 19.2067 81.2317 20.22 81.2317 21.38C81.2317 22.5533 80.9784 23.5733 80.4717 24.44C79.965 25.3067 79.265 25.9733 78.3717 26.44C77.4917 26.9067 76.4917 27.14 75.3717 27.14C74.2517 27.14 73.245 26.9067 72.3517 26.44C71.4584 25.9733 70.7584 25.3067 70.2517 24.44C69.745 23.5733 69.4917 22.5533 69.4917 21.38C69.4917 20.2067 69.745 19.1867 70.2517 18.32C70.7584 17.4533 71.4584 16.7933 72.3517 16.34C73.245 15.8733 74.2517 15.64 75.3717 15.64ZM75.3717 19.04C74.825 19.04 74.3717 19.24 74.0117 19.64C73.6517 20.04 73.4717 20.62 73.4717 21.38C73.4717 22.1533 73.6517 22.74 74.0117 23.14C74.3717 23.54 74.825 23.74 75.3717 23.74C75.905 23.74 76.3517 23.54 76.7117 23.14C77.0717 22.7267 77.2517 22.14 77.2517 21.38C77.2517 20.62 77.0717 20.04 76.7117 19.64C76.3517 19.24 75.905 19.04 75.3717 19.04ZM99.5461 15.78L96.7661 27H92.3661L90.6661 20.02L88.9261 27H84.5061L81.7661 15.78H85.6661L86.8861 23.28L88.6461 15.78H92.8261L94.6661 23.34L95.9061 15.78H99.5461ZM111.399 21.18C111.399 21.46 111.365 21.7667 111.299 22.1H103.879C103.945 23.3667 104.499 24 105.539 24C105.925 24 106.245 23.9067 106.499 23.72C106.752 23.5333 106.925 23.2867 107.019 22.98H111.179C111.032 23.7667 110.705 24.48 110.199 25.12C109.692 25.7467 109.052 26.24 108.279 26.6C107.505 26.96 106.659 27.14 105.739 27.14C104.619 27.14 103.625 26.9133 102.759 26.46C101.905 25.9933 101.239 25.3267 100.759 24.46C100.279 23.58 100.039 22.5533 100.039 21.38C100.039 20.2067 100.279 19.1867 100.759 18.32C101.239 17.4533 101.912 16.7933 102.779 16.34C103.645 15.8733 104.632 15.64 105.739 15.64C106.859 15.64 107.845 15.8667 108.699 16.32C109.552 16.7733 110.212 17.42 110.679 18.26C111.159 19.1 111.399 20.0733 111.399 21.18ZM107.399 20.46C107.412 19.8867 107.259 19.4533 106.939 19.16C106.619 18.8667 106.219 18.72 105.739 18.72C105.219 18.72 104.792 18.8667 104.459 19.16C104.139 19.4533 103.952 19.8867 103.899 20.46H107.399ZM116.922 17.88C117.362 17.2133 117.915 16.68 118.582 16.28C119.249 15.88 119.955 15.68 120.702 15.68V19.88H119.562C118.682 19.88 118.022 20.0533 117.582 20.4C117.142 20.7333 116.922 21.32 116.922 22.16V27H112.982V15.78H116.922V17.88ZM134.665 12.84V27H130.745V21.28H125.945V27H122.005V12.84H125.945V18.14H130.745V12.84H134.665ZM148.369 15.78V27H144.449V25.12C144.129 25.72 143.662 26.2 143.049 26.56C142.436 26.92 141.716 27.1 140.889 27.1C139.596 27.1 138.576 26.6733 137.829 25.82C137.096 24.9533 136.729 23.7733 136.729 22.28V15.78H140.649V21.8C140.649 22.44 140.816 22.9467 141.149 23.32C141.496 23.68 141.956 23.86 142.529 23.86C143.116 23.86 143.582 23.6733 143.929 23.3C144.276 22.9267 144.449 22.4 144.449 21.72V15.78H148.369ZM165.3 15.68C166.714 15.68 167.814 16.1067 168.6 16.96C169.4 17.8133 169.8 18.9867 169.8 20.48V27H165.88V20.98C165.88 20.38 165.714 19.9133 165.38 19.58C165.047 19.2467 164.6 19.08 164.04 19.08C163.454 19.08 162.987 19.2533 162.64 19.6C162.307 19.9333 162.14 20.4133 162.14 21.04V27H158.22V20.98C158.22 20.38 158.054 19.9133 157.72 19.58C157.387 19.2467 156.94 19.08 156.38 19.08C155.794 19.08 155.327 19.2533 154.98 19.6C154.647 19.9333 154.48 20.4133 154.48 21.04V27H150.54V15.78H154.48V17.5C154.8 16.94 155.247 16.5 155.82 16.18C156.394 15.8467 157.067 15.68 157.84 15.68C158.68 15.68 159.42 15.8667 160.06 16.24C160.7 16.6133 161.2 17.1467 161.56 17.84C161.947 17.1867 162.467 16.6667 163.12 16.28C163.774 15.88 164.5 15.68 165.3 15.68ZM176.048 15.64C176.835 15.64 177.515 15.8133 178.088 16.16C178.675 16.4933 179.108 16.96 179.388 17.56V15.78H183.308V27H179.388V25.22C179.108 25.82 178.675 26.2933 178.088 26.64C177.515 26.9733 176.835 27.14 176.048 27.14C175.155 27.14 174.348 26.9133 173.628 26.46C172.908 25.9933 172.341 25.3267 171.928 24.46C171.515 23.58 171.308 22.5533 171.308 21.38C171.308 20.2067 171.515 19.1867 171.928 18.32C172.341 17.4533 172.908 16.7933 173.628 16.34C174.348 15.8733 175.155 15.64 176.048 15.64ZM177.348 19.08C176.735 19.08 176.235 19.2867 175.848 19.7C175.475 20.1 175.288 20.66 175.288 21.38C175.288 22.1133 175.475 22.6867 175.848 23.1C176.235 23.5 176.735 23.7 177.348 23.7C177.935 23.7 178.421 23.4933 178.808 23.08C179.195 22.6667 179.388 22.1 179.388 21.38C179.388 20.6733 179.195 20.1133 178.808 19.7C178.421 19.2867 177.935 19.08 177.348 19.08ZM192.962 15.68C194.256 15.68 195.269 16.1133 196.002 16.98C196.736 17.8333 197.102 19 197.102 20.48V27H193.202V20.98C193.202 20.3267 193.029 19.82 192.682 19.46C192.349 19.0867 191.896 18.9 191.322 18.9C190.736 18.9 190.269 19.0933 189.922 19.48C189.576 19.8533 189.402 20.3733 189.402 21.04V27H185.462V15.78H189.402V17.66C189.722 17.06 190.189 16.58 190.802 16.22C191.416 15.86 192.136 15.68 192.962 15.68Z" fill="#121F3E"/>
</svg>
